<?xml version="1.0" encoding="UTF-8" standalone="no"?>
<!DOCTYPE svg PUBLIC "-//W3C//DTD SVG 1.1//EN" "http://www.w3.org/Graphics/SVG/1.1/DTD/svg11.dtd">
<svg width="100%" height="100%" viewBox="0 0 37 38" version="1.1" xmlns="http://www.w3.org/2000/svg" xmlns:xlink="http://www.w3.org/1999/xlink" xml:space="preserve" xmlns:serif="http://www.serif.com/" style="fill-rule:evenodd;clip-rule:evenodd;stroke-linejoin:round;stroke-miterlimit:2;">
    <path d="M18.5,0C14.905,0.007 11.39,1.059 8.382,3.028C5.374,4.997 3.004,7.799 1.561,11.091C0.117,14.383 -0.338,18.024 0.25,21.571C0.839,25.117 2.446,28.416 4.877,31.065C6.612,32.946 8.719,34.448 11.064,35.475C13.408,36.502 15.94,37.032 18.5,37.032C21.06,37.032 23.592,36.502 25.936,35.475C28.281,34.448 30.388,32.946 32.123,31.065C34.554,28.416 36.161,25.117 36.75,21.571C37.339,18.024 36.883,14.383 35.439,11.091C33.996,7.799 31.626,4.997 28.618,3.028C25.61,1.059 22.095,0.007 18.5,0ZM18.5,33.363C14.66,33.358 10.973,31.863 8.213,29.193C9.051,27.153 10.476,25.409 12.308,24.181C14.14,22.953 16.295,22.298 18.5,22.298C20.705,22.298 22.86,22.953 24.692,24.181C26.524,25.409 27.949,27.153 28.787,29.193C26.027,31.863 22.34,33.358 18.5,33.363ZM14.793,14.828C14.793,14.095 15.01,13.378 15.418,12.769C15.825,12.159 16.404,11.684 17.081,11.403C17.759,11.123 18.504,11.049 19.223,11.192C19.942,11.335 20.603,11.689 21.121,12.207C21.64,12.725 21.993,13.386 22.136,14.105C22.279,14.824 22.205,15.569 21.925,16.247C21.644,16.924 21.169,17.503 20.56,17.911C19.95,18.318 19.233,18.535 18.5,18.535C17.517,18.535 16.574,18.145 15.879,17.449C15.184,16.754 14.793,15.811 14.793,14.828ZM31.308,25.949C29.652,23.117 27.103,20.913 24.061,19.684C25.004,18.614 25.619,17.295 25.831,15.884C26.044,14.473 25.845,13.031 25.258,11.73C24.67,10.43 23.721,9.326 22.522,8.552C21.323,7.778 19.927,7.366 18.5,7.366C17.073,7.366 15.677,7.778 14.478,8.552C13.279,9.326 12.33,10.43 11.743,11.73C11.156,13.031 10.956,14.473 11.169,15.884C11.381,17.295 11.996,18.614 12.939,19.684C9.897,20.913 7.348,23.117 5.692,25.949C4.372,23.701 3.675,21.142 3.672,18.535C3.672,14.602 5.234,10.831 8.015,8.05C10.796,5.269 14.567,3.707 18.5,3.707C22.433,3.707 26.204,5.269 28.985,8.05C31.766,10.831 33.328,14.602 33.328,18.535C33.325,21.142 32.628,23.701 31.308,25.949Z" style="fill:rgb(209,213,219);fill-rule:nonzero;"/>
</svg>
