<svg width="37" height="38" viewBox="0 0 37 38" fill="none" xmlns="http://www.w3.org/2000/svg">
<path d="M18.5 0C14.9051 0.00683028 11.3897 1.05894 8.38206 3.02817C5.37443 4.9974 3.00437 7.79876 1.56057 11.091C0.116758 14.3833 -0.338486 18.0244 0.250285 21.5708C0.839056 25.1172 2.44643 28.4159 4.87662 31.065C6.6123 32.9464 8.71886 34.4479 11.0636 35.4749C13.4083 36.5019 15.9403 37.0321 18.5 37.0321C21.0597 37.0321 23.5917 36.5019 25.9364 35.4749C28.2811 34.4479 30.3877 32.9464 32.1234 31.065C34.5536 28.4159 36.1609 25.1172 36.7497 21.5708C37.3385 18.0244 36.8832 14.3833 35.4394 11.091C33.9956 7.79876 31.6256 4.9974 28.6179 3.02817C25.6103 1.05894 22.0949 0.00683028 18.5 0ZM18.5 33.3634C14.6604 33.3575 10.9727 31.8625 8.21296 29.1929C9.05083 27.1532 10.4762 25.4086 12.3079 24.1808C14.1395 22.953 16.2949 22.2975 18.5 22.2975C20.7051 22.2975 22.8605 22.953 24.6921 24.1808C26.5238 25.4086 27.9492 27.1532 28.787 29.1929C26.0273 31.8625 22.3396 33.3575 18.5 33.3634ZM14.793 14.8282C14.793 14.095 15.0104 13.3783 15.4177 12.7686C15.825 12.159 16.404 11.6839 17.0814 11.4033C17.7588 11.1227 18.5041 11.0493 19.2232 11.1924C19.9423 11.3354 20.6028 11.6885 21.1213 12.2069C21.6397 12.7253 21.9928 13.3859 22.1358 14.105C22.2788 14.8241 22.2054 15.5694 21.9249 16.2468C21.6443 16.9242 21.1691 17.5031 20.5595 17.9105C19.9499 18.3178 19.2332 18.5352 18.5 18.5352C17.5168 18.5352 16.5739 18.1446 15.8787 17.4494C15.1835 16.7542 14.793 15.8113 14.793 14.8282ZM31.3078 25.9493C29.6518 23.1167 27.1029 20.9133 24.0606 19.6844C25.0043 18.6143 25.6192 17.2946 25.8315 15.8836C26.0439 14.4727 25.8445 13.0305 25.2575 11.73C24.6704 10.4295 23.7206 9.3261 22.522 8.55208C21.3233 7.77806 19.9268 7.36635 18.5 7.36635C17.0732 7.36635 15.6767 7.77806 14.478 8.55208C13.2794 9.3261 12.3296 10.4295 11.7425 11.73C11.1555 13.0305 10.9561 14.4727 11.1685 15.8836C11.3808 17.2946 11.9957 18.6143 12.9394 19.6844C9.89707 20.9133 7.34824 23.1167 5.69217 25.9493C4.37236 23.7012 3.67502 21.1421 3.67184 18.5352C3.67184 14.6025 5.23408 10.8309 8.0149 8.05011C10.7957 5.26929 14.5673 3.70704 18.5 3.70704C22.4327 3.70704 26.2043 5.26929 28.9851 8.05011C31.7659 10.8309 33.3282 14.6025 33.3282 18.5352C33.325 21.1421 32.6276 23.7012 31.3078 25.9493Z" fill="black"/>
</svg>
