<svg width="15" height="16" viewBox="0 0 15 16" fill="none" xmlns="http://www.w3.org/2000/svg">
<path d="M12.75 0.888794H2.25C1.65326 0.888794 1.08097 1.12585 0.65901 1.5478C0.237053 1.96976 0 2.54206 0 3.13879V13.6388C0 14.2355 0.237053 14.8078 0.65901 15.2298C1.08097 15.6517 1.65326 15.8888 2.25 15.8888H12.75C12.8734 15.8871 12.9963 15.8745 13.1175 15.8513L13.3425 15.7988H13.395H13.4325L13.71 15.6938L13.8075 15.6413C13.8825 15.5963 13.965 15.5588 14.04 15.5063C14.1401 15.4326 14.2354 15.3524 14.325 15.2663L14.3775 15.1988C14.4511 15.1242 14.5188 15.0439 14.58 14.9588L14.6475 14.8613C14.6999 14.7778 14.745 14.69 14.7825 14.5988C14.8031 14.5628 14.8206 14.5252 14.835 14.4863C14.8725 14.3963 14.895 14.2988 14.925 14.2013V14.0888C14.9675 13.9422 14.9927 13.7912 15 13.6388V3.13879C15 2.54206 14.7629 1.96976 14.341 1.5478C13.919 1.12585 13.3467 0.888794 12.75 0.888794ZM2.25 14.3888C2.05109 14.3888 1.86032 14.3098 1.71967 14.1691C1.57902 14.0285 1.5 13.8377 1.5 13.6388V10.4063L3.9675 7.93129C4.03722 7.861 4.12017 7.8052 4.21157 7.76713C4.30296 7.72905 4.40099 7.70945 4.5 7.70945C4.59901 7.70945 4.69704 7.72905 4.78843 7.76713C4.87983 7.8052 4.96278 7.861 5.0325 7.93129L11.4825 14.3888H2.25ZM13.5 13.6388C13.4993 13.7313 13.4815 13.8228 13.4475 13.9088C13.4304 13.9454 13.4103 13.9805 13.3875 14.0138C13.3674 14.0455 13.3449 14.0756 13.32 14.1038L9.3075 10.0913L9.9675 9.43129C10.0372 9.361 10.1202 9.3052 10.2116 9.26713C10.303 9.22905 10.401 9.20945 10.5 9.20945C10.599 9.20945 10.697 9.22905 10.7884 9.26713C10.8798 9.3052 10.9628 9.361 11.0325 9.43129L13.5 11.9063V13.6388ZM13.5 9.78379L12.09 8.38879C11.6608 7.98154 11.0917 7.7545 10.5 7.7545C9.90833 7.7545 9.33921 7.98154 8.91 8.38879L8.25 9.04879L6.09 6.88879C5.66079 6.48154 5.09167 6.2545 4.5 6.2545C3.90833 6.2545 3.33921 6.48154 2.91 6.88879L1.5 8.28379V3.13879C1.5 2.93988 1.57902 2.74912 1.71967 2.60846C1.86032 2.46781 2.05109 2.38879 2.25 2.38879H12.75C12.9489 2.38879 13.1397 2.46781 13.2803 2.60846C13.421 2.74912 13.5 2.93988 13.5 3.13879V9.78379ZM8.625 3.88879C8.4025 3.88879 8.18499 3.95477 7.99998 4.07839C7.81498 4.20201 7.67078 4.37771 7.58564 4.58328C7.50049 4.78884 7.47821 5.01504 7.52162 5.23327C7.56502 5.4515 7.67217 5.65196 7.8295 5.80929C7.98684 5.96662 8.18729 6.07377 8.40552 6.11718C8.62375 6.16059 8.84995 6.13831 9.05552 6.05316C9.26109 5.96801 9.43679 5.82382 9.5604 5.63881C9.68402 5.4538 9.75 5.2363 9.75 5.01379C9.75 4.71543 9.63147 4.42928 9.4205 4.2183C9.20952 4.00732 8.92337 3.88879 8.625 3.88879Z" fill="#5F5D5D"/>
</svg>
