<?xml version="1.0" encoding="UTF-8" standalone="no"?>
<!DOCTYPE svg PUBLIC "-//W3C//DTD SVG 1.1//EN" "http://www.w3.org/Graphics/SVG/1.1/DTD/svg11.dtd">
<svg width="100%" height="100%" viewBox="0 0 15 16" version="1.1" xmlns="http://www.w3.org/2000/svg" xmlns:xlink="http://www.w3.org/1999/xlink" xml:space="preserve" xmlns:serif="http://www.serif.com/" style="fill-rule:evenodd;clip-rule:evenodd;stroke-linejoin:round;stroke-miterlimit:2;">
    <path d="M12.75,0.889L2.25,0.889C1.653,0.889 1.081,1.126 0.659,1.548C0.237,1.97 0,2.542 0,3.139L0,13.639C0,14.236 0.237,14.808 0.659,15.23C1.081,15.652 1.653,15.889 2.25,15.889L12.75,15.889C12.873,15.887 12.996,15.874 13.118,15.851L13.342,15.799L13.432,15.799L13.71,15.694L13.807,15.641C13.883,15.596 13.965,15.559 14.04,15.506C14.14,15.433 14.235,15.352 14.325,15.266L14.378,15.199C14.451,15.124 14.519,15.044 14.58,14.959L14.648,14.861C14.7,14.778 14.745,14.69 14.783,14.599C14.803,14.563 14.821,14.525 14.835,14.486C14.873,14.396 14.895,14.299 14.925,14.201L14.925,14.089C14.967,13.942 14.993,13.791 15,13.639L15,3.139C15,2.542 14.763,1.97 14.341,1.548C13.919,1.126 13.347,0.889 12.75,0.889ZM2.25,14.389C2.051,14.389 1.86,14.31 1.72,14.169C1.579,14.028 1.5,13.838 1.5,13.639L1.5,10.406L3.967,7.931C4.037,7.861 4.12,7.805 4.212,7.767C4.303,7.729 4.401,7.709 4.5,7.709C4.599,7.709 4.697,7.729 4.788,7.767C4.88,7.805 4.963,7.861 5.033,7.931L11.483,14.389L2.25,14.389ZM13.5,13.639C13.499,13.731 13.482,13.823 13.448,13.909C13.43,13.945 13.41,13.98 13.387,14.014C13.367,14.046 13.345,14.076 13.32,14.104L9.307,10.091L9.968,9.431C10.037,9.361 10.12,9.305 10.212,9.267C10.303,9.229 10.401,9.209 10.5,9.209C10.599,9.209 10.697,9.229 10.788,9.267C10.88,9.305 10.963,9.361 11.033,9.431L13.5,11.906L13.5,13.639ZM13.5,9.784L12.09,8.389C11.661,7.982 11.092,7.755 10.5,7.755C9.908,7.755 9.339,7.982 8.91,8.389L8.25,9.049L6.09,6.889C5.661,6.482 5.092,6.255 4.5,6.255C3.908,6.255 3.339,6.482 2.91,6.889L1.5,8.284L1.5,3.139C1.5,2.94 1.579,2.749 1.72,2.608C1.86,2.468 2.051,2.389 2.25,2.389L12.75,2.389C12.949,2.389 13.14,2.468 13.28,2.608C13.421,2.749 13.5,2.94 13.5,3.139L13.5,9.784ZM8.625,3.889C8.403,3.889 8.185,3.955 8,4.078C7.815,4.202 7.671,4.378 7.586,4.583C7.5,4.789 7.478,5.015 7.522,5.233C7.565,5.452 7.672,5.652 7.83,5.809C7.987,5.967 8.187,6.074 8.406,6.117C8.624,6.161 8.85,6.138 9.056,6.053C9.261,5.968 9.437,5.824 9.56,5.639C9.684,5.454 9.75,5.236 9.75,5.014C9.75,4.715 9.631,4.429 9.421,4.218C9.21,4.007 8.923,3.889 8.625,3.889Z" style="fill:rgb(209,213,219);fill-rule:nonzero;"/>
</svg>
