<svg width="17" height="17" viewBox="0 0 17 17" fill="none" xmlns="http://www.w3.org/2000/svg">
<path d="M8.51196 0C7.3973 0 6.29355 0.21955 5.26373 0.646113C4.23391 1.07268 3.2982 1.6979 2.51001 2.48609C0.918197 4.0779 0.0239247 6.23687 0.0239247 8.48804C0.0165043 10.448 0.695152 12.3489 1.94222 13.861L0.244614 15.5586C0.126836 15.6779 0.0470513 15.8295 0.015328 15.9942C-0.0163953 16.1588 0.00136394 16.3292 0.0663648 16.4838C0.136865 16.6365 0.251153 16.7648 0.394722 16.8525C0.538291 16.9401 0.704666 16.9832 0.872728 16.9761H8.51196C10.7631 16.9761 12.9221 16.0818 14.5139 14.49C16.1057 12.8982 17 10.7392 17 8.48804C17 6.23687 16.1057 4.0779 14.5139 2.48609C12.9221 0.894273 10.7631 0 8.51196 0ZM8.51196 15.2785H2.91835L3.70773 14.4891C3.86582 14.33 3.95456 14.1149 3.95456 13.8907C3.95456 13.6664 3.86582 13.4513 3.70773 13.2923C2.5963 12.1821 1.90417 10.7208 1.74928 9.15757C1.59439 7.59429 1.98631 6.02566 2.85827 4.71894C3.73024 3.41222 5.02829 2.44825 6.53129 1.99127C8.03429 1.53429 9.64924 1.61256 11.101 2.21276C12.5528 2.81295 13.7515 3.89794 14.493 5.28286C15.2345 6.66778 15.4729 8.26696 15.1675 9.80793C14.8622 11.3489 14.032 12.7363 12.8184 13.7338C11.6048 14.7314 10.0829 15.2772 8.51196 15.2785Z" fill="black"/>
</svg>
