<?xml version="1.0" encoding="UTF-8" standalone="no"?>
<!DOCTYPE svg PUBLIC "-//W3C//DTD SVG 1.1//EN" "http://www.w3.org/Graphics/SVG/1.1/DTD/svg11.dtd">
<svg width="100%" height="100%" viewBox="0 0 17 17" version="1.1" xmlns="http://www.w3.org/2000/svg" xmlns:xlink="http://www.w3.org/1999/xlink" xml:space="preserve" xmlns:serif="http://www.serif.com/" style="fill-rule:evenodd;clip-rule:evenodd;stroke-linejoin:round;stroke-miterlimit:2;">
    <path d="M8.512,0C7.397,0 6.294,0.22 5.264,0.646C4.234,1.073 3.298,1.698 2.51,2.486C0.918,4.078 0.024,6.237 0.024,8.488C0.017,10.448 0.695,12.349 1.942,13.861L0.245,15.559C0.127,15.678 0.047,15.83 0.015,15.994C-0.016,16.159 0.001,16.329 0.066,16.484C0.137,16.637 0.251,16.765 0.395,16.853C0.538,16.94 0.705,16.983 0.873,16.976L8.512,16.976C10.763,16.976 12.922,16.082 14.514,14.49C16.106,12.898 17,10.739 17,8.488C17,6.237 16.106,4.078 14.514,2.486C12.922,0.894 10.763,0 8.512,0ZM8.512,15.278L2.918,15.278L3.708,14.489C3.866,14.33 3.955,14.115 3.955,13.891C3.955,13.666 3.866,13.451 3.708,13.292C2.596,12.182 1.904,10.721 1.749,9.158C1.594,7.594 1.986,6.026 2.858,4.719C3.73,3.412 5.028,2.448 6.531,1.991C8.034,1.534 9.649,1.613 11.101,2.213C12.553,2.813 13.752,3.898 14.493,5.283C15.235,6.668 15.473,8.267 15.168,9.808C14.862,11.349 14.032,12.736 12.818,13.734C11.605,14.731 10.083,15.277 8.512,15.278Z" style="fill:rgb(209,213,219);fill-rule:nonzero;"/>
</svg>
