<svg width="35" height="35" viewBox="0 0 35 35" fill="none" xmlns="http://www.w3.org/2000/svg">
<path d="M34.3126 18.7161C34.0601 18.5075 33.7542 18.3739 33.4296 18.3306C33.1049 18.2873 32.7747 18.3361 32.4764 18.4713C30.6273 19.3175 28.6168 19.753 26.5832 19.7479C22.8215 19.7433 19.2141 18.2517 16.5476 15.5983C13.8811 12.945 12.3718 9.34495 12.3487 5.58328C12.3567 4.40435 12.5034 3.23046 12.7859 2.08585C12.8458 1.78076 12.8233 1.46522 12.7207 1.17171C12.6182 0.87821 12.4392 0.617366 12.2022 0.416053C11.9653 0.214741 11.679 0.0802412 11.3727 0.0264101C11.0665 -0.027421 10.7515 0.00136351 10.4601 0.109798C7.71866 1.34248 5.33559 3.25182 3.53475 5.65844C1.7339 8.06506 0.574384 10.89 0.165131 13.8678C-0.244122 16.8456 0.11032 19.8786 1.19516 22.6818C2.28 25.485 4.05963 27.9664 6.36686 29.893C8.6741 31.8195 11.4332 33.1279 14.385 33.6953C17.3368 34.2626 20.3843 34.0703 23.2414 33.1364C26.0984 32.2025 28.6711 30.5577 30.7179 28.3564C32.7646 26.1551 34.2182 23.4696 34.9421 20.5523C35.0303 20.2183 35.0175 19.8656 34.9055 19.5388C34.7934 19.2121 34.5871 18.9258 34.3126 18.7161ZM17.6998 30.415C14.765 30.3943 11.9084 29.467 9.52101 27.76C7.13365 26.053 5.33226 23.6498 4.3635 20.8795C3.39475 18.1092 3.30597 15.1071 4.10934 12.2844C4.91271 9.46162 6.56894 6.95619 8.85126 5.11112V5.58328C8.85589 10.2847 10.7256 14.7922 14.0499 18.1166C17.3743 21.4409 21.8818 23.3106 26.5832 23.3152C27.8176 23.3198 29.0489 23.1908 30.2555 22.9305C29.0488 25.2135 27.2416 27.1237 25.0289 28.455C22.8162 29.7863 20.2821 30.4882 17.6998 30.485V30.415Z" fill="black"/>
</svg>
