<svg width="33" height="33" viewBox="0 0 33 33" fill="none" xmlns="http://www.w3.org/2000/svg">
<path d="M16.5 0C13.2366 0 10.0465 0.967708 7.3331 2.78075C4.61969 4.59379 2.50484 7.17074 1.25599 10.1857C0.00714919 13.2007 -0.319606 16.5183 0.31705 19.719C0.953706 22.9197 2.52518 25.8597 4.83274 28.1673C7.14031 30.4748 10.0803 32.0463 13.281 32.683C16.4817 33.3196 19.7993 32.9929 22.8143 31.744C25.8293 30.4952 28.4062 28.3803 30.2192 25.6669C32.0323 22.9535 33 19.7634 33 16.5C33 14.3332 32.5732 12.1876 31.744 10.1857C30.9148 8.18385 29.6994 6.3649 28.1673 4.83274C26.6351 3.30057 24.8162 2.08519 22.8143 1.25599C20.8124 0.426785 18.6668 0 16.5 0ZM18.15 29.5845V28.05C18.15 27.6124 17.9762 27.1927 17.6667 26.8833C17.3573 26.5738 16.9376 26.4 16.5 26.4C16.0624 26.4 15.6427 26.5738 15.3333 26.8833C15.0238 27.1927 14.85 27.6124 14.85 28.05V29.5845C11.946 29.2162 9.24673 27.8931 7.17682 25.8232C5.10691 23.7533 3.78378 21.054 3.41551 18.15H4.95001C5.38761 18.15 5.8073 17.9762 6.11673 17.6667C6.42617 17.3573 6.60001 16.9376 6.60001 16.5C6.60001 16.0624 6.42617 15.6427 6.11673 15.3333C5.8073 15.0238 5.38761 14.85 4.95001 14.85H3.41551C3.78378 11.946 5.10691 9.24672 7.17682 7.17682C9.24673 5.10691 11.946 3.78377 14.85 3.4155V4.95C14.85 5.38761 15.0238 5.80729 15.3333 6.11672C15.6427 6.42616 16.0624 6.6 16.5 6.6C16.9376 6.6 17.3573 6.42616 17.6667 6.11672C17.9762 5.80729 18.15 5.38761 18.15 4.95V3.4155C21.054 3.78377 23.7533 5.10691 25.8232 7.17682C27.8931 9.24672 29.2162 11.946 29.5845 14.85H28.05C27.6124 14.85 27.1927 15.0238 26.8833 15.3333C26.5738 15.6427 26.4 16.0624 26.4 16.5C26.4 16.9376 26.5738 17.3573 26.8833 17.6667C27.1927 17.9762 27.6124 18.15 28.05 18.15H29.5845C29.2162 21.054 27.8931 23.7533 25.8232 25.8232C23.7533 27.8931 21.054 29.2162 18.15 29.5845ZM21.681 9.1575L13.431 12.6555C13.0464 12.8221 12.7396 13.1289 12.573 13.5135L9.07501 21.7635C8.94506 22.0661 8.90861 22.4006 8.97036 22.724C9.03211 23.0475 9.18923 23.3451 9.42151 23.5785C9.72615 23.8894 10.1413 24.0673 10.5765 24.0735C10.8048 24.0737 11.0303 24.023 11.2365 23.925L19.4865 20.427C19.8711 20.2604 20.1779 19.9536 20.3445 19.569L23.8425 11.319C23.97 11.0166 24.0045 10.6831 23.9415 10.3611C23.8785 10.0391 23.7209 9.74313 23.4889 9.5111C23.2569 9.27907 22.9609 9.1215 22.6389 9.05851C22.3169 8.99552 21.9834 9.02999 21.681 9.1575ZM17.5725 17.5725L13.8105 19.2225L15.4605 15.4605L19.2225 13.8105L17.5725 17.5725Z" fill="#166F00"/>
</svg>
