<?xml version="1.0" encoding="UTF-8" standalone="no"?>
<!DOCTYPE svg PUBLIC "-//W3C//DTD SVG 1.1//EN" "http://www.w3.org/Graphics/SVG/1.1/DTD/svg11.dtd">
<svg width="100%" height="100%" viewBox="0 0 512 512" version="1.1" xmlns="http://www.w3.org/2000/svg" xmlns:xlink="http://www.w3.org/1999/xlink" xml:space="preserve" xmlns:serif="http://www.serif.com/" style="fill-rule:evenodd;clip-rule:evenodd;stroke-linejoin:round;stroke-miterlimit:2;">
    <path d="M464,256C464,141.895 370.105,48 256,48C141.895,48 48,141.895 48,256C48,370.105 141.895,464 256,464C370.105,464 464,370.105 464,256ZM0,256C-0,115.563 115.563,0 256,0C396.437,-0 512,115.563 512,256C512,396.437 396.437,512 256,512C115.563,512 0,396.437 0,256ZM306.7,325.1L162.4,380.6C143,388.1 123.9,369 131.4,349.6L186.9,205.3C190.2,196.8 196.8,190.2 205.3,186.9L349.6,131.4C369,123.9 388.1,143 380.6,162.4L325.1,306.7C321.9,315.2 315.2,321.8 306.7,325.1ZM288,256C288,238.445 273.555,224 256,224C238.445,224 224,238.445 224,256C224,273.555 238.445,288 256,288C273.555,288 288,273.555 288,256Z" style="fill:rgb(209,213,219);fill-rule:nonzero;"/>
</svg>
