<svg width="16" height="16" viewBox="0 0 16 16" fill="none" xmlns="http://www.w3.org/2000/svg">
<path d="M15.9732 5.77942C15.9227 5.63329 15.8309 5.50494 15.709 5.40993C15.587 5.31492 15.4401 5.25733 15.2861 5.24415L10.7403 4.58105L8.70306 0.450675C8.63764 0.315602 8.5355 0.201687 8.40833 0.121981C8.28116 0.0422744 8.13412 0 7.98404 0C7.83396 0 7.68691 0.0422744 7.55974 0.121981C7.43258 0.201687 7.33043 0.315602 7.26502 0.450675L5.22779 4.57306L0.681976 5.24415C0.534115 5.26517 0.395105 5.32721 0.280722 5.42323C0.166338 5.51926 0.0811613 5.64542 0.0348564 5.78741C-0.00752995 5.92616 -0.0113336 6.07384 0.0238536 6.21458C0.0590407 6.35533 0.13189 6.48384 0.234585 6.58632L3.53409 9.78197L2.73518 14.3198C2.70666 14.4696 2.72159 14.6244 2.77822 14.766C2.83485 14.9075 2.9308 15.0299 3.05475 15.1187C3.17556 15.2051 3.31805 15.2561 3.46622 15.2659C3.6144 15.2758 3.7624 15.2442 3.8936 15.1746L7.98404 13.0415L12.0585 15.1826C12.1706 15.2459 12.2973 15.2789 12.426 15.2785C12.5952 15.2791 12.7603 15.2259 12.8973 15.1267C13.0213 15.0379 13.1172 14.9155 13.1739 14.7739C13.2305 14.6324 13.2454 14.4776 13.2169 14.3278L12.418 9.78996L15.7175 6.59431C15.8329 6.49659 15.9181 6.36814 15.9634 6.2239C16.0086 6.07965 16.012 5.92552 15.9732 5.77942ZM11.0598 8.97507C10.9662 9.0657 10.8961 9.17787 10.8557 9.30181C10.8153 9.42574 10.8058 9.55768 10.8282 9.6861L11.4034 13.0335L8.39947 11.4357C8.28388 11.3742 8.15494 11.342 8.02398 11.342C7.89303 11.342 7.76408 11.3742 7.64849 11.4357L4.64458 13.0335L5.2198 9.6861C5.24212 9.55768 5.23267 9.42574 5.19229 9.30181C5.1519 9.17787 5.08181 9.0657 4.98811 8.97507L2.59138 6.57833L5.9548 6.091C6.08422 6.073 6.20725 6.02352 6.31311 5.94692C6.41897 5.87031 6.50442 5.76891 6.56197 5.6516L7.98404 2.60774L9.48599 5.65959C9.54355 5.7769 9.629 5.8783 9.73485 5.9549C9.84071 6.03151 9.96374 6.08098 10.0932 6.09899L13.4566 6.58632L11.0598 8.97507Z" fill="#166F00"/>
</svg>
