<?xml version="1.0" encoding="UTF-8" standalone="no"?>
<!DOCTYPE svg PUBLIC "-//W3C//DTD SVG 1.1//EN" "http://www.w3.org/Graphics/SVG/1.1/DTD/svg11.dtd">
<svg width="100%" height="100%" viewBox="0 0 16 16" version="1.1" xmlns="http://www.w3.org/2000/svg" xmlns:xlink="http://www.w3.org/1999/xlink" xml:space="preserve" xmlns:serif="http://www.serif.com/" style="fill-rule:evenodd;clip-rule:evenodd;stroke-linejoin:round;stroke-miterlimit:2;">
    <path d="M15.973,5.779C15.923,5.633 15.831,5.505 15.709,5.41C15.587,5.315 15.44,5.257 15.286,5.244L10.74,4.581L8.703,0.451C8.638,0.316 8.536,0.202 8.408,0.122C8.281,0.042 8.134,0 7.984,0C7.834,0 7.687,0.042 7.56,0.122C7.433,0.202 7.33,0.316 7.265,0.451L5.228,4.573L0.682,5.244C0.534,5.265 0.395,5.327 0.281,5.423C0.166,5.519 0.081,5.645 0.035,5.787C-0.008,5.926 -0.011,6.074 0.024,6.215C0.059,6.355 0.132,6.484 0.235,6.586L3.534,9.782L2.735,14.32C2.707,14.47 2.722,14.624 2.778,14.766C2.835,14.908 2.931,15.03 3.055,15.119C3.176,15.205 3.318,15.256 3.466,15.266C3.614,15.276 3.762,15.244 3.894,15.175L7.984,13.041L12.059,15.183C12.171,15.246 12.297,15.279 12.426,15.278C12.595,15.279 12.76,15.226 12.897,15.127C13.021,15.038 13.117,14.916 13.174,14.774C13.23,14.632 13.245,14.478 13.217,14.328L12.418,9.79L15.717,6.594C15.833,6.497 15.918,6.368 15.963,6.224C16.009,6.08 16.012,5.926 15.973,5.779ZM11.06,8.975C10.966,9.066 10.896,9.178 10.856,9.302C10.815,9.426 10.806,9.558 10.828,9.686L11.403,13.034L8.399,11.436C8.284,11.374 8.155,11.342 8.024,11.342C7.893,11.342 7.764,11.374 7.648,11.436L4.645,13.034L5.22,9.686C5.242,9.558 5.233,9.426 5.192,9.302C5.152,9.178 5.082,9.066 4.988,8.975L2.591,6.578L5.955,6.091C6.084,6.073 6.207,6.024 6.313,5.947C6.419,5.87 6.504,5.769 6.562,5.652L7.984,2.608L9.486,5.66C9.544,5.777 9.629,5.878 9.735,5.955C9.841,6.032 9.964,6.081 10.093,6.099L13.457,6.586L11.06,8.975Z" style="fill:rgb(209,213,219);fill-rule:nonzero;"/>
</svg>
