<svg width="31" height="28" viewBox="0 0 31 28" fill="none" xmlns="http://www.w3.org/2000/svg">
<path d="M23.25 12.4H21.7C21.2889 12.4 20.8947 12.5633 20.604 12.854C20.3133 13.1447 20.15 13.5389 20.15 13.95C20.15 14.3611 20.3133 14.7553 20.604 15.046C20.8947 15.3367 21.2889 15.5 21.7 15.5H23.25C23.6611 15.5 24.0553 15.3367 24.346 15.046C24.6367 14.7553 24.8 14.3611 24.8 13.95C24.8 13.5389 24.6367 13.1447 24.346 12.854C24.0553 12.5633 23.6611 12.4 23.25 12.4ZM23.25 18.6H21.7C21.2889 18.6 20.8947 18.7633 20.604 19.054C20.3133 19.3447 20.15 19.7389 20.15 20.15C20.15 20.5611 20.3133 20.9553 20.604 21.246C20.8947 21.5367 21.2889 21.7 21.7 21.7H23.25C23.6611 21.7 24.0553 21.5367 24.346 21.246C24.6367 20.9553 24.8 20.5611 24.8 20.15C24.8 19.7389 24.6367 19.3447 24.346 19.054C24.0553 18.7633 23.6611 18.6 23.25 18.6ZM13.95 9.3H23.25C23.6611 9.3 24.0553 9.1367 24.346 8.84601C24.6367 8.55533 24.8 8.16109 24.8 7.75C24.8 7.33891 24.6367 6.94467 24.346 6.65398C24.0553 6.3633 23.6611 6.2 23.25 6.2H13.95C13.5389 6.2 13.1447 6.3633 12.854 6.65398C12.5633 6.94467 12.4 7.33891 12.4 7.75C12.4 8.16109 12.5633 8.55533 12.854 8.84601C13.1447 9.1367 13.5389 9.3 13.95 9.3ZM29.45 0H7.75C7.33891 0 6.94467 0.163303 6.65398 0.453984C6.3633 0.744666 6.2 1.13891 6.2 1.55V6.2H1.55C1.13891 6.2 0.744666 6.3633 0.453984 6.65398C0.163303 6.94467 0 7.33891 0 7.75V23.25C0 24.4833 0.489909 25.666 1.36195 26.538C2.234 27.4101 3.41674 27.9 4.65 27.9H24.8C26.4443 27.9 28.0213 27.2468 29.1841 26.0841C30.3468 24.9213 31 23.3443 31 21.7V1.55C31 1.13891 30.8367 0.744666 30.546 0.453984C30.2553 0.163303 29.8611 0 29.45 0ZM6.2 23.25C6.2 23.6611 6.0367 24.0553 5.74602 24.346C5.45533 24.6367 5.06109 24.8 4.65 24.8C4.23891 24.8 3.84467 24.6367 3.55398 24.346C3.2633 24.0553 3.1 23.6611 3.1 23.25V9.3H6.2V23.25ZM27.9 21.7C27.9 22.5222 27.5734 23.3107 26.992 23.892C26.4107 24.4734 25.6222 24.8 24.8 24.8H9.021C9.20146 24.303 9.29581 23.7788 9.3 23.25V3.1H27.9V21.7ZM13.95 15.5H15.5C15.9111 15.5 16.3053 15.3367 16.596 15.046C16.8867 14.7553 17.05 14.3611 17.05 13.95C17.05 13.5389 16.8867 13.1447 16.596 12.854C16.3053 12.5633 15.9111 12.4 15.5 12.4H13.95C13.5389 12.4 13.1447 12.5633 12.854 12.854C12.5633 13.1447 12.4 13.5389 12.4 13.95C12.4 14.3611 12.5633 14.7553 12.854 15.046C13.1447 15.3367 13.5389 15.5 13.95 15.5ZM13.95 21.7H15.5C15.9111 21.7 16.3053 21.5367 16.596 21.246C16.8867 20.9553 17.05 20.5611 17.05 20.15C17.05 19.7389 16.8867 19.3447 16.596 19.054C16.3053 18.7633 15.9111 18.6 15.5 18.6H13.95C13.5389 18.6 13.1447 18.7633 12.854 19.054C12.5633 19.3447 12.4 19.7389 12.4 20.15C12.4 20.5611 12.5633 20.9553 12.854 21.246C13.1447 21.5367 13.5389 21.7 13.95 21.7Z" fill="#166F00"/>
</svg>
