<?xml version="1.0" encoding="UTF-8" standalone="no"?>
<!DOCTYPE svg PUBLIC "-//W3C//DTD SVG 1.1//EN" "http://www.w3.org/Graphics/SVG/1.1/DTD/svg11.dtd">
<svg width="100%" height="100%" viewBox="0 0 512 512" version="1.1" xmlns="http://www.w3.org/2000/svg" xmlns:xlink="http://www.w3.org/1999/xlink" xml:space="preserve" xmlns:serif="http://www.serif.com/" style="fill-rule:evenodd;clip-rule:evenodd;stroke-linejoin:round;stroke-miterlimit:2;">
    <path d="M168,80C154.7,80 144,90.7 144,104L144,408C144,416.4 142.6,424.5 139.9,432L440,432C453.3,432 464,421.3 464,408L464,104C464,90.7 453.3,80 440,80L168,80ZM72,432C85.3,432 96,421.3 96,408L96,104C96,64.2 128.2,32 168,32L440,32C479.8,32 512,64.2 512,104L512,408C512,447.8 479.8,480 440,480L72,480C32.2,480 0,447.8 0,408L0,112C0,98.7 10.7,88 24,88C37.3,88 48,98.7 48,112L48,408C48,421.3 58.7,432 72,432ZM176,136C176,122.7 186.7,112 200,112L408,112C421.3,112 432,122.7 432,136L432,216C432,229.3 421.3,240 408,240L200,240C186.7,240 176,229.3 176,216L176,136ZM200,272L264,272C277.3,272 288,282.7 288,296C288,309.3 277.3,320 264,320L200,320C186.7,320 176,309.3 176,296C176,282.7 186.7,272 200,272ZM344,272L408,272C421.3,272 432,282.7 432,296C432,309.3 421.3,320 408,320L344,320C330.7,320 320,309.3 320,296C320,282.7 330.7,272 344,272ZM200,352L264,352C277.3,352 288,362.7 288,376C288,389.3 277.3,400 264,400L200,400C186.7,400 176,389.3 176,376C176,362.7 186.7,352 200,352ZM344,352L408,352C421.3,352 432,362.7 432,376C432,389.3 421.3,400 408,400L344,400C330.7,400 320,389.3 320,376C320,362.7 330.7,352 344,352Z" style="fill:rgb(22,111,0);fill-rule:nonzero;"/>
</svg>
