<svg width="128" height="127" viewBox="0 0 128 127" fill="none" xmlns="http://www.w3.org/2000/svg">
<path d="M23.7075 95.1765L19.2095 99.6745C18.0295 100.862 17.3672 102.467 17.3672 104.141C17.3672 105.815 18.0295 107.42 19.2095 108.607C20.3965 109.787 22.0022 110.45 23.6759 110.45C25.3495 110.45 26.9552 109.787 28.1422 108.607L32.6403 104.109C33.6782 102.897 34.2205 101.338 34.1589 99.7439C34.0973 98.1494 33.4364 96.6369 32.3081 95.5087C31.1798 94.3804 29.6673 93.7194 28.0729 93.6578C26.4784 93.5962 24.9195 94.1386 23.7075 95.1765ZM19.6529 63.5C19.6529 61.8198 18.9855 60.2084 17.7974 59.0203C16.6093 57.8322 14.9979 57.1647 13.3176 57.1647H6.98235C5.30213 57.1647 3.69072 57.8322 2.50262 59.0203C1.31452 60.2084 0.647057 61.8198 0.647057 63.5C0.647057 65.1802 1.31452 66.7916 2.50262 67.9797C3.69072 69.1678 5.30213 69.8353 6.98235 69.8353H13.3176C14.9979 69.8353 16.6093 69.1678 17.7974 67.9797C18.9855 66.7916 19.6529 65.1802 19.6529 63.5ZM64 19.1529C65.6802 19.1529 67.2916 18.4855 68.4797 17.2974C69.6678 16.1093 70.3353 14.4979 70.3353 12.8176V6.48235C70.3353 4.80213 69.6678 3.19072 68.4797 2.00262C67.2916 0.814523 65.6802 0.147057 64 0.147057C62.3198 0.147057 60.7084 0.814523 59.5203 2.00262C58.3322 3.19072 57.6647 4.80213 57.6647 6.48235V12.8176C57.6647 14.4979 58.3322 16.1093 59.5203 17.2974C60.7084 18.4855 62.3198 19.1529 64 19.1529ZM23.7075 32.1403C24.8875 33.3107 26.4802 33.9705 28.1422 33.9775C28.976 33.9823 29.8025 33.8225 30.5744 33.5073C31.3463 33.192 32.0483 32.7275 32.6403 32.1403C33.8202 30.9533 34.4825 29.3476 34.4825 27.6739C34.4825 26.0002 33.8202 24.3945 32.6403 23.2075L28.1422 18.7095C26.9303 17.6716 25.3713 17.1292 23.7769 17.1908C22.1824 17.2524 20.67 17.9134 19.5417 19.0417C18.4134 20.17 17.7524 21.6824 17.6908 23.2769C17.6292 24.8713 18.1716 26.4303 19.2095 27.6422L23.7075 32.1403ZM99.731 33.9775C101.393 33.9705 102.986 33.3107 104.166 32.1403L108.664 27.6422C109.327 27.0743 109.866 26.3754 110.246 25.5894C110.626 24.8034 110.84 23.9473 110.874 23.0748C110.907 22.2023 110.76 21.3323 110.442 20.5193C110.123 19.7063 109.64 18.968 109.023 18.3506C108.405 17.7332 107.667 17.2501 106.854 16.9315C106.041 16.613 105.171 16.466 104.298 16.4997C103.426 16.5334 102.57 16.7471 101.784 17.1274C100.998 17.5076 100.299 18.0463 99.731 18.7095L95.6765 23.2075C94.4965 24.3945 93.8342 26.0002 93.8342 27.6739C93.8342 29.3476 94.4965 30.9533 95.6765 32.1403C96.7933 33.2513 98.284 33.9063 99.8578 33.9775H99.731ZM121.018 57.1647H114.682C113.002 57.1647 111.391 57.8322 110.203 59.0203C109.015 60.2084 108.347 61.8198 108.347 63.5C108.347 65.1802 109.015 66.7916 110.203 67.9797C111.391 69.1678 113.002 69.8353 114.682 69.8353H121.018C122.698 69.8353 124.309 69.1678 125.497 67.9797C126.685 66.7916 127.353 65.1802 127.353 63.5C127.353 61.8198 126.685 60.2084 125.497 59.0203C124.309 57.8322 122.698 57.1647 121.018 57.1647ZM64 107.847C62.3198 107.847 60.7084 108.515 59.5203 109.703C58.3322 110.891 57.6647 112.502 57.6647 114.182V120.518C57.6647 122.198 58.3322 123.809 59.5203 124.997C60.7084 126.185 62.3198 126.853 64 126.853C65.6802 126.853 67.2916 126.185 68.4797 124.997C69.6678 123.809 70.3353 122.198 70.3353 120.518V114.182C70.3353 112.502 69.6678 110.891 68.4797 109.703C67.2916 108.515 65.6802 107.847 64 107.847ZM104.292 95.1765C103.089 94.507 101.7 94.248 100.336 94.4386C98.9718 94.6293 97.7071 95.2593 96.7332 96.2332C95.7593 97.2071 95.1293 98.4718 94.9386 99.8358C94.748 101.2 95.007 102.589 95.6765 103.792L100.175 108.291C101.362 109.47 102.967 110.133 104.641 110.133C106.315 110.133 107.92 109.47 109.107 108.291C110.287 107.104 110.95 105.498 110.95 103.824C110.95 102.15 110.287 100.545 109.107 99.3578L104.292 95.1765ZM64 28.6559C57.1085 28.6559 50.3717 30.6994 44.6416 34.5282C38.9116 38.3569 34.4455 43.7988 31.8082 50.1657C29.171 56.5327 28.4809 63.5386 29.8254 70.2977C31.1699 77.0568 34.4884 83.2655 39.3615 88.1385C44.2345 93.0115 50.4431 96.3301 57.2022 97.6746C63.9613 99.0191 70.9673 98.329 77.3343 95.6918C83.7012 93.0545 89.1431 88.5884 92.9718 82.8583C96.8005 77.1283 98.8441 70.3915 98.8441 63.5C98.8274 54.2639 95.1509 45.4109 88.62 38.88C82.0891 32.3491 73.2361 28.6726 64 28.6559ZM64 85.6735C59.6145 85.6735 55.3275 84.3731 51.681 81.9366C48.0346 79.5002 45.1926 76.0371 43.5143 71.9854C41.8361 67.9338 41.397 63.4754 42.2525 59.1742C43.1081 54.8729 45.2199 50.922 48.3209 47.8209C51.422 44.7199 55.3729 42.6081 59.6742 41.7525C63.9754 40.897 68.4338 41.3361 72.4854 43.0143C76.5371 44.6926 80.0002 47.5346 82.4366 51.181C84.8731 54.8275 86.1735 59.1145 86.1735 63.5C86.1735 69.3808 83.8374 75.0207 79.679 79.179C75.5207 83.3374 69.8808 85.6735 64 85.6735Z" fill="#D1D5DB"/>
</svg>