<?xml version="1.0" encoding="UTF-8" standalone="no"?>
<!DOCTYPE svg PUBLIC "-//W3C//DTD SVG 1.1//EN" "http://www.w3.org/Graphics/SVG/1.1/DTD/svg11.dtd">
<svg width="100%" height="100%" viewBox="0 0 512 512" version="1.1" xmlns="http://www.w3.org/2000/svg" xmlns:xlink="http://www.w3.org/1999/xlink" xml:space="preserve" xmlns:serif="http://www.serif.com/" style="fill-rule:evenodd;clip-rule:evenodd;stroke-linejoin:round;stroke-miterlimit:2;">
    <path d="M47.6,300.4L228.3,469.1C235.8,476.1 245.7,480 256,480C266.3,480 276.2,476.1 283.7,469.1L464.4,300.4C494.8,272.1 512,232.4 512,190.9L512,185.1C512,115.2 461.5,55.6 392.6,44.1C347,36.5 300.6,51.4 268,84L256,96L244,84C211.4,51.4 165,36.5 119.4,44.1C50.5,55.6 0,115.2 0,185.1L0,190.9C0,232.4 17.2,272.1 47.6,300.4Z" style="fill:rgb(209,213,219);fill-rule:nonzero;"/>
</svg>
