<svg width="21" height="19" viewBox="0 0 21 19" fill="none" xmlns="http://www.w3.org/2000/svg">
<path d="M19.0854 1.97353C17.9721 0.857311 16.4963 0.176037 14.9246 0.0527672C13.353 -0.0705028 11.789 0.372359 10.5153 1.30136C9.17897 0.307423 7.5157 -0.143274 5.8604 0.0400246C4.2051 0.223324 2.68074 1.027 1.59427 2.28922C0.507805 3.55144 -0.0600578 5.17844 0.00503646 6.84258C0.0701308 8.50672 0.763347 10.0844 1.94509 11.2579L8.46725 17.7906C9.0134 18.3281 9.74898 18.6293 10.5153 18.6293C11.2816 18.6293 12.0171 18.3281 12.5633 17.7906L19.0854 11.2579C20.3117 10.0241 21 8.35524 21 6.61571C21 4.87618 20.3117 3.20731 19.0854 1.97353ZM17.6046 9.80852L11.0824 16.3307C11.0082 16.4056 10.9199 16.4651 10.8225 16.5057C10.7252 16.5463 10.6207 16.5672 10.5153 16.5672C10.4098 16.5672 10.3054 16.5463 10.208 16.5057C10.1107 16.4651 10.0223 16.4056 9.94812 16.3307L3.42596 9.77701C2.6023 8.93506 2.14108 7.80405 2.14108 6.62621C2.14108 5.44837 2.6023 4.31736 3.42596 3.47541C4.26529 2.64674 5.39729 2.18208 6.57677 2.18208C7.75624 2.18208 8.88824 2.64674 9.72757 3.47541C9.8252 3.57385 9.94136 3.65198 10.0693 3.7053C10.1973 3.75862 10.3346 3.78608 10.4733 3.78608C10.6119 3.78608 10.7492 3.75862 10.8772 3.7053C11.0051 3.65198 11.1213 3.57385 11.2189 3.47541C12.0583 2.64674 13.1903 2.18208 14.3697 2.18208C15.5492 2.18208 16.6812 2.64674 17.5205 3.47541C18.3555 4.30633 18.8319 5.43121 18.8476 6.60908C18.8633 7.78695 18.4171 8.92413 17.6046 9.77701V9.80852Z" fill="black"/>
</svg>
