<svg width="19" height="20" viewBox="0 0 19 20" fill="none" xmlns="http://www.w3.org/2000/svg">
<path d="M19 4.97801C19.0007 4.85298 18.9767 4.72904 18.9295 4.6133C18.8822 4.49755 18.8125 4.39228 18.7245 4.30351L14.6965 0.275515C14.6077 0.187468 14.5024 0.117809 14.3867 0.0705331C14.271 0.0232568 14.147 -0.000706969 14.022 1.58785e-05C13.897 -0.000706969 13.773 0.0232568 13.6573 0.0705331C13.5415 0.117809 13.4363 0.187468 13.3475 0.275515L10.659 2.96401L0.275515 13.3475C0.187468 13.4363 0.117809 13.5415 0.0705331 13.6573C0.0232568 13.773 -0.000706969 13.897 1.58785e-05 14.022V18.05C1.58785e-05 18.3019 0.100105 18.5436 0.278264 18.7217C0.456423 18.8999 0.698059 19 0.950014 19H4.97801C5.11094 19.0072 5.24391 18.9864 5.36829 18.939C5.49267 18.8915 5.60568 18.8184 5.70001 18.7245L16.0265 8.341L18.7245 5.70001C18.8112 5.60793 18.8818 5.50196 18.9335 5.38651C18.9426 5.31078 18.9426 5.23423 18.9335 5.15851C18.9379 5.11428 18.9379 5.06973 18.9335 5.02551L19 4.97801ZM4.58851 17.1H1.90001V14.4115L11.3335 4.97801L14.022 7.6665L4.58851 17.1ZM15.3615 6.327L12.673 3.63851L14.022 2.29901L16.701 4.97801L15.3615 6.327Z" fill="white"/>
</svg>
