<svg width="12" height="15" viewBox="0 0 12 15" fill="none" xmlns="http://www.w3.org/2000/svg">
<path d="M6 0C4.4087 0 2.88258 0.632141 1.75736 1.75736C0.632141 2.88258 0 4.4087 0 6C0 10.05 5.2875 14.625 5.5125 14.82C5.64835 14.9362 5.82124 15 6 15C6.17876 15 6.35165 14.9362 6.4875 14.82C6.75 14.625 12 10.05 12 6C12 4.4087 11.3679 2.88258 10.2426 1.75736C9.11742 0.632141 7.5913 0 6 0ZM6 13.2375C4.4025 11.7375 1.5 8.505 1.5 6C1.5 4.80653 1.97411 3.66193 2.81802 2.81802C3.66193 1.97411 4.80653 1.5 6 1.5C7.19347 1.5 8.33807 1.97411 9.18198 2.81802C10.0259 3.66193 10.5 4.80653 10.5 6C10.5 8.505 7.5975 11.745 6 13.2375ZM6 3C5.40666 3 4.82664 3.17595 4.33329 3.50559C3.83994 3.83524 3.45542 4.30377 3.22836 4.85195C3.0013 5.40013 2.94189 6.00333 3.05764 6.58527C3.1734 7.16721 3.45912 7.70176 3.87868 8.12132C4.29824 8.54088 4.83279 8.8266 5.41473 8.94236C5.99667 9.05811 6.59987 8.9987 7.14805 8.77164C7.69623 8.54458 8.16476 8.16006 8.49441 7.66671C8.82405 7.17336 9 6.59334 9 6C9 5.20435 8.68393 4.44129 8.12132 3.87868C7.55871 3.31607 6.79565 3 6 3ZM6 7.5C5.70333 7.5 5.41332 7.41203 5.16664 7.2472C4.91997 7.08238 4.72771 6.84811 4.61418 6.57402C4.50065 6.29994 4.47094 5.99834 4.52882 5.70736C4.5867 5.41639 4.72956 5.14912 4.93934 4.93934C5.14912 4.72956 5.41639 4.5867 5.70736 4.52882C5.99834 4.47094 6.29994 4.50065 6.57402 4.61418C6.84811 4.72771 7.08238 4.91997 7.2472 5.16664C7.41203 5.41332 7.5 5.70333 7.5 6C7.5 6.39782 7.34196 6.77936 7.06066 7.06066C6.77936 7.34196 6.39782 7.5 6 7.5Z" fill="black"/>
</svg>
