<?xml version="1.0" encoding="UTF-8" standalone="no"?>
<!DOCTYPE svg PUBLIC "-//W3C//DTD SVG 1.1//EN" "http://www.w3.org/Graphics/SVG/1.1/DTD/svg11.dtd">
<svg width="100%" height="100%" viewBox="0 0 512 512" version="1.1" xmlns="http://www.w3.org/2000/svg" xmlns:xlink="http://www.w3.org/1999/xlink" xml:space="preserve" xmlns:serif="http://www.serif.com/" style="fill-rule:evenodd;clip-rule:evenodd;stroke-linejoin:round;stroke-miterlimit:2;">
    <path d="M406.5,399.6C387.4,352.9 341.5,320 288,320L224,320C170.5,320 124.6,352.9 105.5,399.6C69.9,362.2 48,311.7 48,256C48,141.1 141.1,48 256,48C370.9,48 464,141.1 464,256C464,311.7 442.1,362.2 406.5,399.6ZM366.4,432.3C334.4,452.4 296.6,464 256,464C215.4,464 177.6,452.4 145.5,432.3C152.8,395.6 185.2,368 224,368L288,368C326.8,368 359.2,395.6 366.5,432.3L366.4,432.3ZM256,512C396.437,512 512,396.437 512,256C512,115.563 396.437,0 256,0C115.563,0 -0,115.563 0,256C0,396.437 115.563,512 256,512ZM256,240C234.057,240 216,221.943 216,200C216,178.057 234.057,160 256,160C277.943,160 296,178.057 296,200C296,221.943 277.943,240 256,240ZM168,200C168,248.275 207.725,288 256,288C304.275,288 344,248.275 344,200C344,151.725 304.275,112 256,112C207.725,112 168,151.725 168,200Z" style="fill:rgb(22,111,0);fill-rule:nonzero;"/>
</svg>
