<svg width="28" height="29" viewBox="0 0 28 29" fill="none" xmlns="http://www.w3.org/2000/svg">
<path d="M19.1988 15.0758C20.5781 13.9906 21.5849 12.5024 22.0791 10.8184C22.5732 9.13432 22.5302 7.33812 21.956 5.67966C21.3818 4.02119 20.305 2.58293 18.8753 1.56498C17.4456 0.547029 15.7342 0 13.9791 0C12.2241 0 10.5127 0.547029 9.08298 1.56498C7.65329 2.58293 6.57644 4.02119 6.00223 5.67966C5.42803 7.33812 5.38502 9.13432 5.8792 10.8184C6.37337 12.5024 7.38016 13.9906 8.75949 15.0758C6.39598 16.0227 4.33374 17.5932 2.79262 19.62C1.25149 21.6467 0.289254 24.0537 0.00848627 26.5843C-0.0118372 26.7691 0.00442949 26.956 0.0563571 27.1345C0.108285 27.313 0.194856 27.4795 0.311129 27.6245C0.545954 27.9174 0.887502 28.1049 1.26064 28.146C1.63378 28.187 2.00793 28.0782 2.30081 27.8433C2.59368 27.6085 2.78127 27.267 2.82231 26.8938C3.13125 24.1436 4.44264 21.6036 6.50592 19.7591C8.5692 17.9146 11.2397 16.895 14.0073 16.895C16.7748 16.895 19.4453 17.9146 21.5086 19.7591C23.5719 21.6036 24.8833 24.1436 25.1922 26.8938C25.2305 27.2395 25.3954 27.5588 25.6553 27.7901C25.9151 28.0213 26.2513 28.1481 26.5991 28.146H26.7539C27.1227 28.1036 27.4598 27.9171 27.6917 27.6272C27.9236 27.3373 28.0315 26.9675 27.992 26.5984C27.7099 24.0606 26.7425 21.6474 25.1934 19.6176C23.6444 17.5877 21.5721 16.0177 19.1988 15.0758ZM13.9791 14.0769C12.8661 14.0769 11.778 13.7468 10.8526 13.1284C9.92711 12.5101 9.2058 11.6311 8.77986 10.6028C8.35392 9.5745 8.24247 8.44297 8.45961 7.35131C8.67676 6.25965 9.21274 5.2569 9.99978 4.46986C10.7868 3.68282 11.7896 3.14684 12.8812 2.92969C13.9729 2.71255 15.1044 2.82399 16.1327 3.24994C17.1611 3.67588 18.04 4.39719 18.6584 5.32265C19.2767 6.24812 19.6068 7.33617 19.6068 8.44921C19.6068 9.94176 19.0139 11.3732 17.9585 12.4286C16.9031 13.484 15.4717 14.0769 13.9791 14.0769Z" fill="black"/>
</svg>
