<?xml version="1.0" encoding="UTF-8" standalone="no"?>
<!DOCTYPE svg PUBLIC "-//W3C//DTD SVG 1.1//EN" "http://www.w3.org/Graphics/SVG/1.1/DTD/svg11.dtd">
<svg width="100%" height="100%" viewBox="0 0 512 512" version="1.1" xmlns="http://www.w3.org/2000/svg" xmlns:xlink="http://www.w3.org/1999/xlink" xml:space="preserve" xmlns:serif="http://www.serif.com/" style="fill-rule:evenodd;clip-rule:evenodd;stroke-linejoin:round;stroke-miterlimit:2;">
    <path d="M406.5,399.6C387.4,352.9 341.5,320 288,320L224,320C170.5,320 124.6,352.9 105.5,399.6C69.9,362.2 48,311.7 48,256C48,141.1 141.1,48 256,48C370.9,48 464,141.1 464,256C464,311.7 442.1,362.2 406.5,399.6ZM366.4,432.3C334.4,452.4 296.6,464 256,464C215.4,464 177.6,452.4 145.5,432.3C152.8,395.6 185.2,368 224,368L288,368C326.8,368 359.2,395.6 366.5,432.3L366.4,432.3ZM256,512C396.437,512 512,396.437 512,256C512,115.563 396.437,0 256,0C115.563,0 -0,115.563 0,256C0,396.437 115.563,512 256,512ZM256,240C234.057,240 216,221.943 216,200C216,178.057 234.057,160 256,160C277.943,160 296,178.057 296,200C296,221.943 277.943,240 256,240ZM168,200C168,248.275 207.725,288 256,288C304.275,288 344,248.275 344,200C344,151.725 304.275,112 256,112C207.725,112 168,151.725 168,200Z" style="fill-rule:nonzero;"/>
    <g transform="matrix(1,0,0,1,-34.4803,10.0839)">
        <path d="M478.17,210.785C478.17,191.396 462.429,175.654 443.039,175.654L137.921,175.654C118.532,175.654 102.79,191.396 102.79,210.785L102.79,281.047C102.79,300.436 118.532,316.178 137.921,316.178L443.039,316.178C462.429,316.178 478.17,300.436 478.17,281.047L478.17,210.785Z" style="fill:rgb(235,235,235);fill-opacity:0.95;"/>
    </g>
    <g transform="matrix(-8.79888e-17,0.485577,-1.10989,-2.06988e-16,535.799,108.048)">
        <path d="M252.422,262.457L252.422,281.698L184.762,252.097L252.422,222.496L252.422,241.736L320.081,241.736L320.081,262.457L252.422,262.457Z" style="fill-opacity:0.95;"/>
    </g>
    <g transform="matrix(1,0,0,1,10.4091,4.554)">
        <path d="M195.172,239.573C195.172,235.893 192.184,232.905 188.503,232.905L175.166,232.905C171.486,232.905 168.498,235.893 168.498,239.573L168.498,291.944C168.498,295.624 171.486,298.612 175.166,298.612L188.503,298.612C192.184,298.612 195.172,295.624 195.172,291.944L195.172,239.573Z" style="fill-opacity:0.95;"/>
        <g transform="matrix(1,0,0,1,127.512,0)">
            <path d="M195.172,239.573C195.172,235.893 192.184,232.905 188.503,232.905L175.166,232.905C171.486,232.905 168.498,235.893 168.498,239.573L168.498,291.944C168.498,295.624 171.486,298.612 175.166,298.612L188.503,298.612C192.184,298.612 195.172,295.624 195.172,291.944L195.172,239.573Z" style="fill-opacity:0.95;"/>
        </g>
        <g transform="matrix(6.12323e-17,1,-2.0396,1.2489e-16,784.38,103.441)">
            <path d="M195.172,236.174C195.172,234.37 192.184,232.905 188.503,232.905L175.166,232.905C171.486,232.905 168.498,234.37 168.498,236.174L168.498,295.343C168.498,297.147 171.486,298.612 175.166,298.612L188.503,298.612C192.184,298.612 195.172,297.147 195.172,295.343L195.172,236.174Z" style="fill-opacity:0.95;"/>
        </g>
    </g>
</svg>