<svg width="28" height="28" viewBox="0 0 28 28" fill="none" xmlns="http://www.w3.org/2000/svg">
<path d="M27.6068 25.62L22.4159 20.4711C24.4309 17.9588 25.4067 14.7699 25.1426 11.5602C24.8786 8.35052 23.3949 5.36397 20.9965 3.21465C18.5981 1.06534 15.4674 -0.0833757 12.2481 0.00471654C9.02875 0.0928087 5.96552 1.41101 3.68827 3.68827C1.41101 5.96553 0.0928087 9.02875 0.00471654 12.2481C-0.0833757 15.4674 1.06534 18.5981 3.21465 20.9965C5.36397 23.3949 8.35052 24.8786 11.5602 25.1426C14.7699 25.4067 17.9588 24.4309 20.4711 22.4159L25.62 27.5649C25.7501 27.696 25.9048 27.8001 26.0753 27.8711C26.2459 27.9422 26.4287 27.9787 26.6134 27.9787C26.7981 27.9787 26.981 27.9422 27.1515 27.8711C27.322 27.8001 27.4768 27.696 27.6068 27.5649C27.859 27.304 28 26.9553 28 26.5925C28 26.2296 27.859 25.8809 27.6068 25.62ZM12.6218 22.4159C10.6847 22.4159 8.79105 21.8415 7.1804 20.7653C5.56976 19.6891 4.31441 18.1595 3.57312 16.3698C2.83182 14.5802 2.63786 12.6109 3.01577 10.711C3.39368 8.81112 4.32649 7.06597 5.69623 5.69623C7.06597 4.32649 8.81112 3.39368 10.711 3.01577C12.6109 2.63786 14.5802 2.83182 16.3698 3.57312C18.1595 4.31441 19.6891 5.56976 20.7653 7.1804C21.8415 8.79105 22.4159 10.6847 22.4159 12.6218C22.4159 15.2193 21.3841 17.7105 19.5473 19.5473C17.7105 21.3841 15.2193 22.4159 12.6218 22.4159Z" fill="#8C8C8C"/>
</svg>
