<?xml version="1.0" encoding="UTF-8" standalone="no"?>
<!DOCTYPE svg PUBLIC "-//W3C//DTD SVG 1.1//EN" "http://www.w3.org/Graphics/SVG/1.1/DTD/svg11.dtd">
<svg width="100%" height="100%" viewBox="0 0 21 21" version="1.1" xmlns="http://www.w3.org/2000/svg" xmlns:xlink="http://www.w3.org/1999/xlink" xml:space="preserve" xmlns:serif="http://www.serif.com/" style="fill-rule:evenodd;clip-rule:evenodd;stroke-linejoin:round;stroke-miterlimit:2;">
    <path d="M5.534,4.025C5.236,4.025 4.944,4.113 4.696,4.279C4.447,4.445 4.254,4.681 4.14,4.957C4.025,5.232 3.996,5.536 4.054,5.829C4.112,6.121 4.256,6.39 4.467,6.601C4.678,6.812 4.947,6.956 5.24,7.014C5.532,7.073 5.836,7.043 6.112,6.929C6.387,6.814 6.623,6.621 6.789,6.373C6.955,6.124 7.043,5.833 7.043,5.534C7.043,5.134 6.884,4.75 6.601,4.467C6.318,4.184 5.934,4.025 5.534,4.025ZM19.238,8.764L10.776,0.292C10.682,0.199 10.571,0.125 10.448,0.075C10.326,0.025 10.194,-0.001 10.062,0L1.006,0C0.739,0 0.483,0.106 0.295,0.295C0.106,0.483 0,0.739 0,1.006L0,10.062C-0.001,10.194 0.025,10.326 0.075,10.448C0.125,10.571 0.199,10.682 0.292,10.776L8.764,19.238C9.33,19.804 10.097,20.121 10.897,20.121C11.697,20.121 12.464,19.804 13.03,19.238L19.238,13.081C19.804,12.515 20.121,11.747 20.121,10.948C20.121,10.148 19.804,9.38 19.238,8.814L19.238,8.764ZM17.82,11.602L11.602,17.81C11.413,17.997 11.158,18.102 10.892,18.102C10.626,18.102 10.371,17.997 10.183,17.81L2.012,9.649L2.012,2.012L9.649,2.012L17.82,10.183C17.913,10.277 17.987,10.388 18.037,10.511C18.087,10.634 18.112,10.765 18.112,10.897C18.11,11.161 18.006,11.414 17.82,11.602Z" style="fill:rgb(209,213,219);fill-rule:nonzero;"/>
</svg>
