<svg width="21" height="21" viewBox="0 0 21 21" fill="none" xmlns="http://www.w3.org/2000/svg">
<path d="M5.53411 4.02481C5.2356 4.02481 4.94379 4.11333 4.69559 4.27918C4.44739 4.44502 4.25394 4.68074 4.1397 4.95653C4.02547 5.23232 3.99558 5.53578 4.05381 5.82856C4.11205 6.12134 4.2558 6.39027 4.46688 6.60135C4.67795 6.81243 4.94689 6.95617 5.23966 7.01441C5.53244 7.07265 5.83591 7.04276 6.11169 6.92852C6.38748 6.81429 6.6232 6.62083 6.78905 6.37263C6.95489 6.12443 7.04341 5.83262 7.04341 5.53411C7.04341 5.13382 6.88439 4.74992 6.60135 4.46688C6.3183 4.18383 5.9344 4.02481 5.53411 4.02481ZM19.2385 8.76401L10.7764 0.291814C10.6824 0.198559 10.5709 0.124779 10.4483 0.0747057C10.3257 0.0246326 10.1944 -0.000748792 10.062 1.68179e-05H1.00622C0.739355 1.68179e-05 0.483424 0.106027 0.294726 0.294726C0.106027 0.483424 1.68179e-05 0.739355 1.68179e-05 1.00622V10.062C-0.000748792 10.1944 0.0246326 10.3257 0.0747057 10.4483C0.124779 10.5709 0.198559 10.6824 0.291814 10.7764L8.76401 19.2385C9.33 19.8038 10.0972 20.1213 10.8972 20.1213C11.6971 20.1213 12.4643 19.8038 13.0303 19.2385L19.2385 13.0806C19.8038 12.5146 20.1213 11.7474 20.1213 10.9475C20.1213 10.1475 19.8038 9.38031 19.2385 8.81432V8.76401ZM17.8198 11.6015L11.6015 17.8097C11.413 17.9971 11.1579 18.1023 10.8921 18.1023C10.6263 18.1023 10.3713 17.9971 10.1827 17.8097L2.01241 9.64946V2.01241H9.64946L17.8198 10.1827C17.9131 10.2768 17.9868 10.3883 18.0369 10.5109C18.087 10.6335 18.1124 10.7647 18.1116 10.8972C18.1105 11.1611 18.0057 11.4141 17.8198 11.6015Z" fill="black"/>
</svg>
